<?xml version="1.0" standalone="no"?>
<!DOCTYPE svg PUBLIC "-//W3C//DTD SVG 20010904//EN"
 "http://www.w3.org/TR/2001/REC-SVG-20010904/DTD/svg10.dtd">
<svg version="1.0" xmlns="http://www.w3.org/2000/svg"
 width="1000.000000pt" height="1000.000000pt" viewBox="0 0 1000.000000 1000.000000"
 preserveAspectRatio="xMidYMid meet">
<metadata>
Created by potrace 1.11, written by Peter Selinger 2001-2013
</metadata>
<g transform="translate(0.000000,1000.000000) scale(0.100000,-0.100000)"
fill="#000000" stroke="none">
<path d="M0 5000 l0 -5000 5000 0 5000 0 0 5000 0 5000 -5000 0 -5000 0 0
-5000z m3540 825 l0 -2355 -265 0 -265 0 0 2355 0 2355 265 0 265 0 0 -2355z
m2380 2350 c0 -3 -356 -718 -792 -1589 l-792 -1584 373 -754 c205 -414 375
-759 378 -766 4 -10 -48 -12 -253 -10 l-259 3 -383 763 -383 762 792 1590 792
1590 264 0 c145 0 263 -2 263 -5z m559 -261 c501 -536 657 -1669 352 -2554
-137 -399 -366 -700 -624 -821 -113 -52 -157 -61 -358 -66 l-187 -5 244 -491
c134 -270 244 -495 244 -499 0 -5 -116 -7 -257 -6 l-257 3 -383 762 -383 761
751 1506 c653 1307 755 1504 769 1496 10 -5 50 -44 89 -86z"/>
</g>
</svg>
